<svg xmlns="http://www.w3.org/2000/svg" xmlns:xlink="http://www.w3.org/1999/xlink" version="1.1" width="56" height="50" viewBox="0 0 56 50" enable-background="new 0 0 56 50" xml:space="preserve"><g><rect x="20" y="18" fill="#fff" width="17" height="8"/><path fill="#fff" d="M28 2C15.3 2 5 12 5 25s10.3 23 23 23s23-10.3 23-23S40.7 2 28 2z M43 30c0 1.1-0.9 2-2 2h-8v3h2v2H22v-2 h2v-3h-8c-1.1 0-2-0.9-2-2V14c0-1.1 0.9-2 2-2h25c1.1 0 2 0 2 2V30z"/><rect x="26" y="32" fill="#fff" width="5" height="3"/><path fill="#fff" d="M16 30h25V14H16V30z M18 16h21v12H18V16z"/><path fill="#fff" d="M0 0v50h56V0H0z M28 50C14.2 50 3 38 3 25S14.2 0 28 0s25 11 25 25S41.8 50 28 50z"/></g></svg>
