<svg
    version="1.1"
    xmlns="http://www.w3.org/2000/svg"
    xmlns:xlink="http://www.w3.org/1999/xlink"
    x="0px"
    y="0px"
    viewBox="0 0 640 480"
    enable-background="new 0 0 640 480"
    xml:space="preserve"
>
    <path fill="#ffffff" stroke="#000000" d="m379.242035,320.255859a51.262413,54.336082 0 1 1-102.524811,0a51.262413,54.336082 0 1 1102.524811,0z" />
    <path fill="#ffffff" stroke="#000000" d="m379.242035,320.255859a51.262413,54.336082 0 1 1-102.524811,0a51.262413,54.336082 0 1 1102.524811,0z" />
    <path fill="#ffffff" stroke="#000000" stroke-width="13" stroke-miterlimit="2" stroke-dashoffset="0" id="path12329" d="m316.098755,57.712597c-48.101013,0 -87.056808,31.904903 -99.953308,74.602863c-14.683975,-7.487694 -30.597794,-12.862587 -48.321793,-12.862587c-58.462631,0 -105.910789,46.099236 -105.910583,102.900505c0,11.914444 3.442375,22.7966 7.28141,33.442612c-29.093174,15.861938 -49.645685,45.049896 -49.645685,79.747925c0,51.120941 42.703104,92.610626 95.319681,92.610443c3.751945,0 398.708611,0 402.460564,0c52.61615,0 95.319702,-41.489502 95.319702,-92.610443c0,-34.698029 -20.552734,-63.885986 -49.645691,-79.747925c3.838989,-10.645874 7.281372,-21.528397 7.281372,-33.442612c0,-56.801086 -47.447998,-102.900314 -105.910767,-102.900505c-17.723755,0 -33.637604,5.374893 -48.321594,12.862587c-12.896667,-42.69796 -51.852325,-74.602863 -99.953308,-74.602863z" />
</svg>
